STARTFONT 2.1
FONT -Fondu-AppleGothic-Medium-R-Normal--16-150-75-75-P-101-MacRoman-1
SIZE 15 75 75
FONTBOUNDINGBOX 16 18 0 -4
COMMENT Created by Fondu from a mac NFNT/FONT resource
STARTPROPERTIES 17
FOUNDRY "Fondu"
FAMILY_NAME "AppleGothic"
WEIGHT_NAME "Medium"
SLANT "R"
SETWIDTH_NAME "Normal"
ADD_STYLE_NAME ""
PIXEL_SIZE 16
POINT_SIZE 150
RESOLUTION_X 75
RESOLUTION_Y 75
SPACING "P"
AVERAGE_WIDTH 101
CHARSET_REGISTRY "MacRoman"
CHARSET_ENCODING "1"
FONT_ASCENT 14
FONT_DESCENT 4
FACE_NAME "AppleGothic"
ENDPROPERTIES
CHARS 229
STARTCHAR char0011
ENCODING 17
SWIDTH 913 0
DWIDTH 15 0
BBX 11 11 2 0
BITMAP
7BC0
8A20
8A20
8A20
7FC0
0A00
7FC0
8A20
8A20
8A20
7BC0
ENDCHAR
STARTCHAR char0012
ENCODING 18
SWIDTH 581 0
DWIDTH 9 0
BBX 8 10 1 0
BITMAP
01
01
02
02
04
04
08
88
50
30
ENDCHAR
STARTCHAR char0013
ENCODING 19
SWIDTH 744 0
DWIDTH 12 0
BBX 9 9 2 0
BITMAP
0800
1C00
3E00
7F00
FF80
7F00
3E00
1C00
0800
ENDCHAR
STARTCHAR char0014
ENCODING 20
SWIDTH 744 0
DWIDTH 12 0
BBX 11 12 0 0
BITMAP
0300
0600
0400
3BC0
7FE0
FFC0
FFC0
FFC0
FFE0
FFE0
7FC0
3B80
ENDCHAR
STARTCHAR onehalf
ENCODING 21
SWIDTH 500 0
DWIDTH 8 0
BBX 6 11 1 0
BITMAP
7C
F4
F4
F4
F4
74
14
14
14
14
14
ENDCHAR
STARTCHAR space
ENCODING 32
SWIDTH 400 0
DWIDTH 6 0
BBX 0 0 0 -4
BITMAP
ENDCHAR
STARTCHAR exclam
ENCODING 33
SWIDTH 500 0
DWIDTH 8 0
BBX 1 11 3 0
BITMAP
80
80
80
80
80
80
80
80
00
80
80
ENDCHAR
STARTCHAR quotedbl
ENCODING 34
SWIDTH 400 0
DWIDTH 6 0
BBX 5 4 0 9
BITMAP
D8
D8
48
90
ENDCHAR
STARTCHAR numbersign
ENCODING 35
SWIDTH 680 0
DWIDTH 11 0
BBX 9 11 1 0
BITMAP
1100
1100
1100
7F80
2200
2200
2200
FF00
4400
4400
4400
ENDCHAR
STARTCHAR dollar
ENCODING 36
SWIDTH 680 0
DWIDTH 11 0
BBX 7 13 2 -1
BITMAP
10
7C
92
90
90
90
7C
12
12
12
92
7C
10
ENDCHAR
STARTCHAR percent
ENCODING 37
SWIDTH 1000 0
DWIDTH 16 0
BBX 11 11 2 0
BITMAP
7000
8840
8880
8900
7200
0400
09C0
1220
2220
4220
01C0
ENDCHAR
STARTCHAR ampersand
ENCODING 38
SWIDTH 1000 0
DWIDTH 16 0
BBX 10 11 3 0
BITMAP
3C00
4200
4200
4200
4400
3800
4900
8500
8200
8300
7CC0
ENDCHAR
STARTCHAR quotesingle
ENCODING 39
SWIDTH 400 0
DWIDTH 6 0
BBX 2 4 2 9
BITMAP
C0
C0
40
80
ENDCHAR
STARTCHAR parenleft
ENCODING 40
SWIDTH 500 0
DWIDTH 8 0
BBX 4 14 4 -1
BITMAP
10
20
40
40
80
80
80
80
80
80
40
40
20
10
ENDCHAR
STARTCHAR parenright
ENCODING 41
SWIDTH 500 0
DWIDTH 8 0
BBX 4 14 0 -1
BITMAP
80
40
20
20
10
10
10
10
10
10
20
20
40
80
ENDCHAR
STARTCHAR asterisk
ENCODING 42
SWIDTH 500 0
DWIDTH 8 0
BBX 5 4 1 9
BITMAP
A8
70
70
A8
ENDCHAR
STARTCHAR plus
ENCODING 43
SWIDTH 1000 0
DWIDTH 16 0
BBX 9 9 3 1
BITMAP
0800
0800
0800
0800
FF80
0800
0800
0800
0800
ENDCHAR
STARTCHAR comma
ENCODING 44
SWIDTH 400 0
DWIDTH 6 0
BBX 2 4 1 -2
BITMAP
C0
C0
40
80
ENDCHAR
STARTCHAR hyphen
ENCODING 45
SWIDTH 500 0
DWIDTH 8 0
BBX 6 1 1 5
BITMAP
FC
ENDCHAR
STARTCHAR period
ENCODING 46
SWIDTH 400 0
DWIDTH 6 0
BBX 2 2 1 0
BITMAP
C0
C0
ENDCHAR
STARTCHAR slash
ENCODING 47
SWIDTH 500 0
DWIDTH 8 0
BBX 6 12 1 -1
BITMAP
04
04
08
08
10
10
20
20
40
40
80
80
ENDCHAR
STARTCHAR zero
ENCODING 48
SWIDTH 680 0
DWIDTH 11 0
BBX 7 11 2 0
BITMAP
7C
82
82
82
82
82
82
82
82
82
7C
ENDCHAR
STARTCHAR one
ENCODING 49
SWIDTH 680 0
DWIDTH 11 0
BBX 2 11 4 0
BITMAP
40
C0
40
40
40
40
40
40
40
40
40
ENDCHAR
STARTCHAR two
ENCODING 50
SWIDTH 680 0
DWIDTH 11 0
BBX 7 11 2 0
BITMAP
7C
82
82
02
04
08
10
20
40
80
FE
ENDCHAR
STARTCHAR three
ENCODING 51
SWIDTH 680 0
DWIDTH 11 0
BBX 7 11 2 0
BITMAP
7C
82
82
02
02
3C
02
02
82
82
7C
ENDCHAR
STARTCHAR four
ENCODING 52
SWIDTH 680 0
DWIDTH 11 0
BBX 8 11 2 0
BITMAP
02
06
0A
12
22
42
82
82
FF
02
02
ENDCHAR
STARTCHAR five
ENCODING 53
SWIDTH 680 0
DWIDTH 11 0
BBX 7 11 2 0
BITMAP
FE
80
80
FC
82
02
02
02
82
82
7C
ENDCHAR
STARTCHAR six
ENCODING 54
SWIDTH 680 0
DWIDTH 11 0
BBX 7 11 2 0
BITMAP
7C
82
82
80
FC
82
82
82
82
82
7C
ENDCHAR
STARTCHAR seven
ENCODING 55
SWIDTH 680 0
DWIDTH 11 0
BBX 7 11 2 0
BITMAP
FE
02
02
04
04
08
08
10
10
20
20
ENDCHAR
STARTCHAR eight
ENCODING 56
SWIDTH 680 0
DWIDTH 11 0
BBX 7 11 2 0
BITMAP
7C
82
82
82
7C
82
82
82
82
82
7C
ENDCHAR
STARTCHAR nine
ENCODING 57
SWIDTH 680 0
DWIDTH 11 0
BBX 7 11 2 0
BITMAP
7C
82
82
82
82
82
7E
02
82
82
7C
ENDCHAR
STARTCHAR colon
ENCODING 58
SWIDTH 500 0
DWIDTH 8 0
BBX 2 8 3 1
BITMAP
C0
C0
00
00
00
00
C0
C0
ENDCHAR
STARTCHAR semicolon
ENCODING 59
SWIDTH 500 0
DWIDTH 8 0
BBX 2 10 3 -1
BITMAP
C0
C0
00
00
00
00
C0
C0
40
80
ENDCHAR
STARTCHAR less
ENCODING 60
SWIDTH 500 0
DWIDTH 8 0
BBX 7 13 1 -1
BITMAP
02
04
08
10
20
40
80
40
20
10
08
04
02
ENDCHAR
STARTCHAR equal
ENCODING 61
SWIDTH 1000 0
DWIDTH 16 0
BBX 10 4 3 3
BITMAP
FFC0
0000
0000
FFC0
ENDCHAR
STARTCHAR greater
ENCODING 62
SWIDTH 500 0
DWIDTH 8 0
BBX 7 13 0 -1
BITMAP
80
40
20
10
08
04
02
04
08
10
20
40
80
ENDCHAR
STARTCHAR question
ENCODING 63
SWIDTH 680 0
DWIDTH 11 0
BBX 5 11 3 0
BITMAP
70
88
88
08
10
20
20
20
00
20
20
ENDCHAR
STARTCHAR at
ENCODING 64
SWIDTH 1000 0
DWIDTH 16 0
BBX 11 10 3 0
BITMAP
3F80
4040
8E20
9120
9120
9120
9120
8EC0
4000
3FC0
ENDCHAR
STARTCHAR A
ENCODING 65
SWIDTH 816 0
DWIDTH 13 0
BBX 8 11 3 0
BITMAP
10
10
10
28
28
44
44
7C
82
82
82
ENDCHAR
STARTCHAR B
ENCODING 66
SWIDTH 772 0
DWIDTH 12 0
BBX 7 11 2 0
BITMAP
FC
82
82
82
82
FC
82
82
82
82
FC
ENDCHAR
STARTCHAR C
ENCODING 67
SWIDTH 775 0
DWIDTH 12 0
BBX 8 11 2 0
BITMAP
3C
42
81
80
80
80
80
80
81
42
3C
ENDCHAR
STARTCHAR D
ENCODING 68
SWIDTH 785 0
DWIDTH 13 0
BBX 8 11 3 0
BITMAP
FC
82
81
81
81
81
81
81
81
82
FC
ENDCHAR
STARTCHAR E
ENCODING 69
SWIDTH 714 0
DWIDTH 11 0
BBX 7 11 2 0
BITMAP
FE
80
80
80
80
FC
80
80
80
80
FE
ENDCHAR
STARTCHAR F
ENCODING 70
SWIDTH 678 0
DWIDTH 11 0
BBX 7 11 2 0
BITMAP
FE
80
80
80
80
FC
80
80
80
80
80
ENDCHAR
STARTCHAR G
ENCODING 71
SWIDTH 889 0
DWIDTH 14 0
BBX 8 11 3 0
BITMAP
3E
41
80
80
80
87
81
81
81
43
3D
ENDCHAR
STARTCHAR H
ENCODING 72
SWIDTH 831 0
DWIDTH 13 0
BBX 7 11 3 0
BITMAP
82
82
82
82
82
FE
82
82
82
82
82
ENDCHAR
STARTCHAR I
ENCODING 73
SWIDTH 319 0
DWIDTH 5 0
BBX 1 11 2 0
BITMAP
80
80
80
80
80
80
80
80
80
80
80
ENDCHAR
STARTCHAR J
ENCODING 74
SWIDTH 653 0
DWIDTH 10 0
BBX 4 11 3 0
BITMAP
10
10
10
10
10
10
10
10
10
10
E0
ENDCHAR
STARTCHAR K
ENCODING 75
SWIDTH 786 0
DWIDTH 13 0
BBX 7 11 3 0
BITMAP
82
84
88
90
A0
C0
A0
90
88
84
82
ENDCHAR
STARTCHAR L
ENCODING 76
SWIDTH 653 0
DWIDTH 10 0
BBX 7 11 2 0
BITMAP
80
80
80
80
80
80
80
80
80
80
FE
ENDCHAR
STARTCHAR M
ENCODING 77
SWIDTH 1066 0
DWIDTH 17 0
BBX 9 11 4 0
BITMAP
8080
8080
C180
C180
A280
A280
9480
9480
8880
8880
8880
ENDCHAR
STARTCHAR N
ENCODING 78
SWIDTH 895 0
DWIDTH 14 0
BBX 7 11 3 0
BITMAP
C2
C2
A2
A2
92
92
92
8A
8A
86
86
ENDCHAR
STARTCHAR O
ENCODING 79
SWIDTH 888 0
DWIDTH 14 0
BBX 8 11 3 0
BITMAP
3C
42
81
81
81
81
81
81
81
42
3C
ENDCHAR
STARTCHAR P
ENCODING 80
SWIDTH 714 0
DWIDTH 11 0
BBX 7 11 2 0
BITMAP
FC
82
82
82
82
82
FC
80
80
80
80
ENDCHAR
STARTCHAR Q
ENCODING 81
SWIDTH 854 0
DWIDTH 14 0
BBX 8 11 3 0
BITMAP
3C
42
81
81
81
81
81
89
85
42
3D
ENDCHAR
STARTCHAR R
ENCODING 82
SWIDTH 775 0
DWIDTH 12 0
BBX 7 11 2 0
BITMAP
FC
82
82
82
82
FC
82
82
82
82
82
ENDCHAR
STARTCHAR S
ENCODING 83
SWIDTH 769 0
DWIDTH 12 0
BBX 7 11 2 0
BITMAP
7C
82
82
80
80
7C
02
02
82
82
7C
ENDCHAR
STARTCHAR T
ENCODING 84
SWIDTH 719 0
DWIDTH 12 0
BBX 7 11 2 0
BITMAP
FE
10
10
10
10
10
10
10
10
10
10
ENDCHAR
STARTCHAR U
ENCODING 85
SWIDTH 889 0
DWIDTH 14 0
BBX 7 11 3 0
BITMAP
82
82
82
82
82
82
82
82
82
82
7C
ENDCHAR
STARTCHAR V
ENCODING 86
SWIDTH 779 0
DWIDTH 12 0
BBX 7 11 3 0
BITMAP
82
82
82
44
44
44
28
28
28
10
10
ENDCHAR
STARTCHAR W
ENCODING 87
SWIDTH 1149 0
DWIDTH 18 0
BBX 11 11 3 0
BITMAP
8020
8420
8420
4440
4440
4A40
2A80
2A80
1100
1100
1100
ENDCHAR
STARTCHAR X
ENCODING 88
SWIDTH 847 0
DWIDTH 14 0
BBX 9 11 3 0
BITMAP
8080
8080
4100
2200
1400
0800
1400
2200
4100
8080
8080
ENDCHAR
STARTCHAR Y
ENCODING 89
SWIDTH 731 0
DWIDTH 12 0
BBX 9 11 1 0
BITMAP
8080
8080
4100
2200
1400
0800
0800
0800
0800
0800
0800
ENDCHAR
STARTCHAR Z
ENCODING 90
SWIDTH 697 0
DWIDTH 11 0
BBX 8 11 2 0
BITMAP
FF
01
02
04
08
10
10
20
40
80
FF
ENDCHAR
STARTCHAR bracketleft
ENCODING 91
SWIDTH 500 0
DWIDTH 8 0
BBX 3 12 5 0
BITMAP
E0
80
80
80
80
80
80
80
80
80
80
E0
ENDCHAR
STARTCHAR backslash
ENCODING 92
SWIDTH 500 0
DWIDTH 8 0
BBX 6 12 1 -1
BITMAP
80
80
40
40
20
20
10
10
08
08
04
04
ENDCHAR
STARTCHAR bracketright
ENCODING 93
SWIDTH 500 0
DWIDTH 8 0
BBX 3 12 0 0
BITMAP
E0
20
20
20
20
20
20
20
20
20
20
E0
ENDCHAR
STARTCHAR asciicircum
ENCODING 94
SWIDTH 500 0
DWIDTH 8 0
BBX 6 3 1 10
BITMAP
30
48
84
ENDCHAR
STARTCHAR underscore
ENCODING 95
SWIDTH 500 0
DWIDTH 8 0
BBX 8 1 0 -3
BITMAP
FF
ENDCHAR
STARTCHAR grave
ENCODING 96
SWIDTH 250 0
DWIDTH 4 0
BBX 2 4 1 9
BITMAP
40
80
C0
C0
ENDCHAR
STARTCHAR a
ENCODING 97
SWIDTH 644 0
DWIDTH 10 0
BBX 7 8 2 0
BITMAP
78
84
04
7C
84
84
84
7E
ENDCHAR
STARTCHAR b
ENCODING 98
SWIDTH 694 0
DWIDTH 11 0
BBX 6 11 3 0
BITMAP
80
80
80
F8
84
84
84
84
84
84
F8
ENDCHAR
STARTCHAR c
ENCODING 99
SWIDTH 584 0
DWIDTH 9 0
BBX 6 8 1 0
BITMAP
78
84
80
80
80
80
84
78
ENDCHAR
STARTCHAR d
ENCODING 100
SWIDTH 696 0
DWIDTH 11 0
BBX 6 11 2 0
BITMAP
04
04
04
7C
84
84
84
84
84
84
7C
ENDCHAR
STARTCHAR e
ENCODING 101
SWIDTH 643 0
DWIDTH 10 0
BBX 6 8 2 0
BITMAP
78
84
84
84
FC
80
84
78
ENDCHAR
STARTCHAR f
ENCODING 102
SWIDTH 457 0
DWIDTH 7 0
BBX 4 11 2 0
BITMAP
30
40
40
E0
40
40
40
40
40
40
40
ENDCHAR
STARTCHAR g
ENCODING 103
SWIDTH 699 0
DWIDTH 11 0
BBX 8 11 2 -3
BITMAP
7B
84
84
84
78
80
7C
82
82
82
7C
ENDCHAR
STARTCHAR h
ENCODING 104
SWIDTH 703 0
DWIDTH 11 0
BBX 6 11 3 0
BITMAP
80
80
80
B8
C4
84
84
84
84
84
84
ENDCHAR
STARTCHAR i
ENCODING 105
SWIDTH 323 0
DWIDTH 5 0
BBX 1 11 2 0
BITMAP
80
80
00
80
80
80
80
80
80
80
80
ENDCHAR
STARTCHAR j
ENCODING 106
SWIDTH 322 0
DWIDTH 5 0
BBX 3 13 1 -2
BITMAP
20
20
00
20
20
20
20
20
20
20
20
20
C0
ENDCHAR
STARTCHAR k
ENCODING 107
SWIDTH 598 0
DWIDTH 10 0
BBX 6 11 2 0
BITMAP
80
80
80
84
88
90
A0
E0
90
88
84
ENDCHAR
STARTCHAR l
ENCODING 108
SWIDTH 323 0
DWIDTH 5 0
BBX 2 11 1 0
BITMAP
C0
40
40
40
40
40
40
40
40
40
40
ENDCHAR
STARTCHAR m
ENCODING 109
SWIDTH 1050 0
DWIDTH 17 0
BBX 9 8 3 0
BITMAP
B700
C880
8880
8880
8880
8880
8880
8880
ENDCHAR
STARTCHAR n
ENCODING 110
SWIDTH 700 0
DWIDTH 11 0
BBX 6 8 2 0
BITMAP
B8
C4
84
84
84
84
84
84
ENDCHAR
STARTCHAR o
ENCODING 111
SWIDTH 697 0
DWIDTH 11 0
BBX 6 8 2 0
BITMAP
78
84
84
84
84
84
84
78
ENDCHAR
STARTCHAR p
ENCODING 112
SWIDTH 693 0
DWIDTH 11 0
BBX 6 11 3 -3
BITMAP
F8
84
84
84
84
84
84
F8
80
80
80
ENDCHAR
STARTCHAR q
ENCODING 113
SWIDTH 694 0
DWIDTH 11 0
BBX 6 11 2 -3
BITMAP
7C
84
84
84
84
84
84
7C
04
04
04
ENDCHAR
STARTCHAR r
ENCODING 114
SWIDTH 458 0
DWIDTH 7 0
BBX 4 8 2 0
BITMAP
B0
C0
80
80
80
80
80
80
ENDCHAR
STARTCHAR s
ENCODING 115
SWIDTH 583 0
DWIDTH 9 0
BBX 6 8 1 0
BITMAP
78
84
80
60
18
04
84
78
ENDCHAR
STARTCHAR t
ENCODING 116
SWIDTH 382 0
DWIDTH 6 0
BBX 4 11 1 0
BITMAP
40
40
40
F0
40
40
40
40
40
40
30
ENDCHAR
STARTCHAR u
ENCODING 117
SWIDTH 705 0
DWIDTH 11 0
BBX 6 8 2 0
BITMAP
84
84
84
84
84
84
8C
74
ENDCHAR
STARTCHAR v
ENCODING 118
SWIDTH 634 0
DWIDTH 10 0
BBX 7 8 1 0
BITMAP
82
82
44
44
28
28
10
10
ENDCHAR
STARTCHAR w
ENCODING 119
SWIDTH 929 0
DWIDTH 15 0
BBX 11 8 2 0
BITMAP
8420
8420
4440
4A40
2A80
2A80
1100
1100
ENDCHAR
STARTCHAR x
ENCODING 120
SWIDTH 651 0
DWIDTH 10 0
BBX 7 8 1 0
BITMAP
82
44
28
10
10
28
44
82
ENDCHAR
STARTCHAR y
ENCODING 121
SWIDTH 635 0
DWIDTH 10 0
BBX 6 11 2 -3
BITMAP
84
84
84
44
44
28
28
10
10
20
C0
ENDCHAR
STARTCHAR z
ENCODING 122
SWIDTH 527 0
DWIDTH 8 0
BBX 6 8 1 0
BITMAP
FC
04
08
10
20
40
80
FC
ENDCHAR
STARTCHAR braceleft
ENCODING 123
SWIDTH 500 0
DWIDTH 8 0
BBX 3 12 4 0
BITMAP
20
40
40
40
40
80
40
40
40
40
40
20
ENDCHAR
STARTCHAR bar
ENCODING 124
SWIDTH 500 0
DWIDTH 8 0
BBX 1 18 4 -4
BITMAP
80
80
80
80
80
80
80
80
80
80
80
80
80
80
80
80
80
80
ENDCHAR
STARTCHAR braceright
ENCODING 125
SWIDTH 500 0
DWIDTH 8 0
BBX 3 12 1 0
BITMAP
80
40
40
40
40
20
40
40
40
40
40
80
ENDCHAR
STARTCHAR asciitilde
ENCODING 126
SWIDTH 1000 0
DWIDTH 16 0
BBX 10 2 3 5
BITMAP
7840
8780
ENDCHAR
STARTCHAR char007f
ENCODING 127
SWIDTH 400 0
DWIDTH 6 0
BBX 0 0 0 -4
BITMAP
ENDCHAR
STARTCHAR Adieresis
ENCODING 128
SWIDTH 400 0
DWIDTH 6 0
BBX 0 0 0 -4
BITMAP
ENDCHAR
STARTCHAR Aring
ENCODING 129
SWIDTH 913 0
DWIDTH 15 0
BBX 13 10 1 0
BITMAP
2220
2220
2220
FFF8
1540
1540
1540
0880
0880
0880
ENDCHAR
STARTCHAR Ccedilla
ENCODING 130
SWIDTH 498 0
DWIDTH 8 0
BBX 8 1 0 3
BITMAP
FF
ENDCHAR
STARTCHAR Eacute
ENCODING 131
SWIDTH 1000 0
DWIDTH 16 0
BBX 11 11 2 0
BITMAP
3F80
4040
8E20
9120
9020
9020
9020
9120
8E20
4040
3F80
ENDCHAR
STARTCHAR Ntilde
ENCODING 132
SWIDTH 747 0
DWIDTH 12 0
BBX 12 0 0 -4
BITMAP
ENDCHAR
STARTCHAR Odieresis
ENCODING 133
SWIDTH 1000 0
DWIDTH 16 0
BBX 16 16 0 -3
BITMAP
FFFF
FFFF
FFFF
FFFF
FFFF
FFFF
FFFF
FFFF
FFFF
FFFF
FFFF
FFFF
FFFF
FFFF
FFFF
FFFF
ENDCHAR
STARTCHAR Udieresis
ENCODING 134
SWIDTH 1000 0
DWIDTH 16 0
BBX 16 16 0 -3
BITMAP
FFFF
FFFF
FFFF
FFFF
FFFF
FFFF
FFFF
FFFF
FFFF
FFFF
FFFF
FFFF
FFFF
FFFF
FFFF
FFFF
ENDCHAR
STARTCHAR aacute
ENCODING 135
SWIDTH 1000 0
DWIDTH 16 0
BBX 16 16 0 -3
BITMAP
FFFF
FFFF
FFFF
FFFF
FFFF
FFFF
FFFF
FFFF
FFFF
FFFF
FFFF
FFFF
FFFF
FFFF
FFFF
FFFF
ENDCHAR
STARTCHAR agrave
ENCODING 136
SWIDTH 1000 0
DWIDTH 16 0
BBX 16 16 0 -3
BITMAP
FFFF
FFFF
FFFF
FFFF
FFFF
FFFF
FFFF
FFFF
FFFF
FFFF
FFFF
FFFF
FFFF
FFFF
FFFF
FFFF
ENDCHAR
STARTCHAR acircumflex
ENCODING 137
SWIDTH 1000 0
DWIDTH 16 0
BBX 16 16 0 -3
BITMAP
FFFF
FFFF
FFFF
FFFF
FFFF
FFFF
FFFF
FFFF
FFFF
FFFF
FFFF
FFFF
FFFF
FFFF
FFFF
FFFF
ENDCHAR
STARTCHAR adieresis
ENCODING 138
SWIDTH 1000 0
DWIDTH 16 0
BBX 16 16 0 -3
BITMAP
FFFF
FFFF
FFFF
FFFF
FFFF
FFFF
FFFF
FFFF
FFFF
FFFF
FFFF
FFFF
FFFF
FFFF
FFFF
FFFF
ENDCHAR
STARTCHAR atilde
ENCODING 139
SWIDTH 1000 0
DWIDTH 16 0
BBX 16 16 0 -3
BITMAP
FFFF
FFFF
FFFF
FFFF
FFFF
FFFF
FFFF
FFFF
FFFF
FFFF
FFFF
FFFF
FFFF
FFFF
FFFF
FFFF
ENDCHAR
STARTCHAR aring
ENCODING 140
SWIDTH 1000 0
DWIDTH 16 0
BBX 16 16 0 -3
BITMAP
FFFF
FFFF
FFFF
FFFF
FFFF
FFFF
FFFF
FFFF
FFFF
FFFF
FFFF
FFFF
FFFF
FFFF
FFFF
FFFF
ENDCHAR
STARTCHAR ccedilla
ENCODING 141
SWIDTH 1000 0
DWIDTH 16 0
BBX 16 16 0 -3
BITMAP
FFFF
FFFF
FFFF
FFFF
FFFF
FFFF
FFFF
FFFF
FFFF
FFFF
FFFF
FFFF
FFFF
FFFF
FFFF
FFFF
ENDCHAR
STARTCHAR eacute
ENCODING 142
SWIDTH 1000 0
DWIDTH 16 0
BBX 16 16 0 -3
BITMAP
FFFF
FFFF
FFFF
FFFF
FFFF
FFFF
FFFF
FFFF
FFFF
FFFF
FFFF
FFFF
FFFF
FFFF
FFFF
FFFF
ENDCHAR
STARTCHAR egrave
ENCODING 143
SWIDTH 1000 0
DWIDTH 16 0
BBX 16 16 0 -3
BITMAP
FFFF
FFFF
FFFF
FFFF
FFFF
FFFF
FFFF
FFFF
FFFF
FFFF
FFFF
FFFF
FFFF
FFFF
FFFF
FFFF
ENDCHAR
STARTCHAR ecircumflex
ENCODING 144
SWIDTH 1000 0
DWIDTH 16 0
BBX 16 16 0 -3
BITMAP
FFFF
FFFF
FFFF
FFFF
FFFF
FFFF
FFFF
FFFF
FFFF
FFFF
FFFF
FFFF
FFFF
FFFF
FFFF
FFFF
ENDCHAR
STARTCHAR edieresis
ENCODING 145
SWIDTH 1000 0
DWIDTH 16 0
BBX 16 16 0 -3
BITMAP
FFFF
FFFF
FFFF
FFFF
FFFF
FFFF
FFFF
FFFF
FFFF
FFFF
FFFF
FFFF
FFFF
FFFF
FFFF
FFFF
ENDCHAR
STARTCHAR iacute
ENCODING 146
SWIDTH 1000 0
DWIDTH 16 0
BBX 16 16 0 -3
BITMAP
FFFF
FFFF
FFFF
FFFF
FFFF
FFFF
FFFF
FFFF
FFFF
FFFF
FFFF
FFFF
FFFF
FFFF
FFFF
FFFF
ENDCHAR
STARTCHAR igrave
ENCODING 147
SWIDTH 1000 0
DWIDTH 16 0
BBX 16 16 0 -3
BITMAP
FFFF
FFFF
FFFF
FFFF
FFFF
FFFF
FFFF
FFFF
FFFF
FFFF
FFFF
FFFF
FFFF
FFFF
FFFF
FFFF
ENDCHAR
STARTCHAR icircumflex
ENCODING 148
SWIDTH 1000 0
DWIDTH 16 0
BBX 16 16 0 -3
BITMAP
FFFF
FFFF
FFFF
FFFF
FFFF
FFFF
FFFF
FFFF
FFFF
FFFF
FFFF
FFFF
FFFF
FFFF
FFFF
FFFF
ENDCHAR
STARTCHAR idieresis
ENCODING 149
SWIDTH 1000 0
DWIDTH 16 0
BBX 16 16 0 -3
BITMAP
FFFF
FFFF
FFFF
FFFF
FFFF
FFFF
FFFF
FFFF
FFFF
FFFF
FFFF
FFFF
FFFF
FFFF
FFFF
FFFF
ENDCHAR
STARTCHAR ntilde
ENCODING 150
SWIDTH 1000 0
DWIDTH 16 0
BBX 16 16 0 -3
BITMAP
FFFF
FFFF
FFFF
FFFF
FFFF
FFFF
FFFF
FFFF
FFFF
FFFF
FFFF
FFFF
FFFF
FFFF
FFFF
FFFF
ENDCHAR
STARTCHAR oacute
ENCODING 151
SWIDTH 1000 0
DWIDTH 16 0
BBX 16 16 0 -3
BITMAP
FFFF
FFFF
FFFF
FFFF
FFFF
FFFF
FFFF
FFFF
FFFF
FFFF
FFFF
FFFF
FFFF
FFFF
FFFF
FFFF
ENDCHAR
STARTCHAR ograve
ENCODING 152
SWIDTH 1000 0
DWIDTH 16 0
BBX 16 16 0 -3
BITMAP
FFFF
FFFF
FFFF
FFFF
FFFF
FFFF
FFFF
FFFF
FFFF
FFFF
FFFF
FFFF
FFFF
FFFF
FFFF
FFFF
ENDCHAR
STARTCHAR ocircumflex
ENCODING 153
SWIDTH 1000 0
DWIDTH 16 0
BBX 16 16 0 -3
BITMAP
FFFF
FFFF
FFFF
FFFF
FFFF
FFFF
FFFF
FFFF
FFFF
FFFF
FFFF
FFFF
FFFF
FFFF
FFFF
FFFF
ENDCHAR
STARTCHAR odieresis
ENCODING 154
SWIDTH 1000 0
DWIDTH 16 0
BBX 16 16 0 -3
BITMAP
FFFF
FFFF
FFFF
FFFF
FFFF
FFFF
FFFF
FFFF
FFFF
FFFF
FFFF
FFFF
FFFF
FFFF
FFFF
FFFF
ENDCHAR
STARTCHAR otilde
ENCODING 155
SWIDTH 1000 0
DWIDTH 16 0
BBX 16 16 0 -3
BITMAP
FFFF
FFFF
FFFF
FFFF
FFFF
FFFF
FFFF
FFFF
FFFF
FFFF
FFFF
FFFF
FFFF
FFFF
FFFF
FFFF
ENDCHAR
STARTCHAR uacute
ENCODING 156
SWIDTH 1000 0
DWIDTH 16 0
BBX 16 16 0 -3
BITMAP
FFFF
FFFF
FFFF
FFFF
FFFF
FFFF
FFFF
FFFF
FFFF
FFFF
FFFF
FFFF
FFFF
FFFF
FFFF
FFFF
ENDCHAR
STARTCHAR ugrave
ENCODING 157
SWIDTH 1000 0
DWIDTH 16 0
BBX 16 16 0 -3
BITMAP
FFFF
FFFF
FFFF
FFFF
FFFF
FFFF
FFFF
FFFF
FFFF
FFFF
FFFF
FFFF
FFFF
FFFF
FFFF
FFFF
ENDCHAR
STARTCHAR ucircumflex
ENCODING 158
SWIDTH 1000 0
DWIDTH 16 0
BBX 16 16 0 -3
BITMAP
FFFF
FFFF
FFFF
FFFF
FFFF
FFFF
FFFF
FFFF
FFFF
FFFF
FFFF
FFFF
FFFF
FFFF
FFFF
FFFF
ENDCHAR
STARTCHAR udieresis
ENCODING 159
SWIDTH 1000 0
DWIDTH 16 0
BBX 16 16 0 -3
BITMAP
FFFF
FFFF
FFFF
FFFF
FFFF
FFFF
FFFF
FFFF
FFFF
FFFF
FFFF
FFFF
FFFF
FFFF
FFFF
FFFF
ENDCHAR
STARTCHAR dagger
ENCODING 160
SWIDTH 1000 0
DWIDTH 16 0
BBX 16 16 0 -3
BITMAP
FFFF
FFFF
FFFF
FFFF
FFFF
FFFF
FFFF
FFFF
FFFF
FFFF
FFFF
FFFF
FFFF
FFFF
FFFF
FFFF
ENDCHAR
STARTCHAR degree
ENCODING 161
SWIDTH 500 0
DWIDTH 8 0
BBX 0 0 0 -4
BITMAP
ENDCHAR
STARTCHAR cent
ENCODING 162
SWIDTH 500 0
DWIDTH 8 0
BBX 0 0 0 -4
BITMAP
ENDCHAR
STARTCHAR sterling
ENCODING 163
SWIDTH 500 0
DWIDTH 8 0
BBX 0 0 0 -4
BITMAP
ENDCHAR
STARTCHAR section
ENCODING 164
SWIDTH 500 0
DWIDTH 8 0
BBX 0 0 0 -4
BITMAP
ENDCHAR
STARTCHAR bullet
ENCODING 165
SWIDTH 500 0
DWIDTH 8 0
BBX 0 0 0 -4
BITMAP
ENDCHAR
STARTCHAR paragraph
ENCODING 166
SWIDTH 500 0
DWIDTH 8 0
BBX 0 0 0 -4
BITMAP
ENDCHAR
STARTCHAR germandbls
ENCODING 167
SWIDTH 500 0
DWIDTH 8 0
BBX 0 0 0 -4
BITMAP
ENDCHAR
STARTCHAR registered
ENCODING 168
SWIDTH 500 0
DWIDTH 8 0
BBX 0 0 0 -4
BITMAP
ENDCHAR
STARTCHAR copyright
ENCODING 169
SWIDTH 500 0
DWIDTH 8 0
BBX 0 0 0 -4
BITMAP
ENDCHAR
STARTCHAR trademark
ENCODING 170
SWIDTH 500 0
DWIDTH 8 0
BBX 0 0 0 -4
BITMAP
ENDCHAR
STARTCHAR acute
ENCODING 171
SWIDTH 500 0
DWIDTH 8 0
BBX 0 0 0 -4
BITMAP
ENDCHAR
STARTCHAR dieresis
ENCODING 172
SWIDTH 500 0
DWIDTH 8 0
BBX 0 0 0 -4
BITMAP
ENDCHAR
STARTCHAR notequal
ENCODING 173
SWIDTH 500 0
DWIDTH 8 0
BBX 0 0 0 -4
BITMAP
ENDCHAR
STARTCHAR AE
ENCODING 174
SWIDTH 500 0
DWIDTH 8 0
BBX 0 0 0 -4
BITMAP
ENDCHAR
STARTCHAR Oslash
ENCODING 175
SWIDTH 500 0
DWIDTH 8 0
BBX 0 0 0 -4
BITMAP
ENDCHAR
STARTCHAR infinity
ENCODING 176
SWIDTH 500 0
DWIDTH 8 0
BBX 0 0 0 -4
BITMAP
ENDCHAR
STARTCHAR plusminus
ENCODING 177
SWIDTH 500 0
DWIDTH 8 0
BBX 0 0 0 -4
BITMAP
ENDCHAR
STARTCHAR lessequal
ENCODING 178
SWIDTH 500 0
DWIDTH 8 0
BBX 0 0 0 -4
BITMAP
ENDCHAR
STARTCHAR greaterequal
ENCODING 179
SWIDTH 500 0
DWIDTH 8 0
BBX 0 0 0 -4
BITMAP
ENDCHAR
STARTCHAR yen
ENCODING 180
SWIDTH 500 0
DWIDTH 8 0
BBX 0 0 0 -4
BITMAP
ENDCHAR
STARTCHAR mu
ENCODING 181
SWIDTH 500 0
DWIDTH 8 0
BBX 0 0 0 -4
BITMAP
ENDCHAR
STARTCHAR partialdiff
ENCODING 182
SWIDTH 500 0
DWIDTH 8 0
BBX 0 0 0 -4
BITMAP
ENDCHAR
STARTCHAR summation
ENCODING 183
SWIDTH 500 0
DWIDTH 8 0
BBX 0 0 0 -4
BITMAP
ENDCHAR
STARTCHAR product
ENCODING 184
SWIDTH 500 0
DWIDTH 8 0
BBX 0 0 0 -4
BITMAP
ENDCHAR
STARTCHAR pi
ENCODING 185
SWIDTH 500 0
DWIDTH 8 0
BBX 0 0 0 -4
BITMAP
ENDCHAR
STARTCHAR integral
ENCODING 186
SWIDTH 500 0
DWIDTH 8 0
BBX 0 0 0 -4
BITMAP
ENDCHAR
STARTCHAR ordfeminine
ENCODING 187
SWIDTH 500 0
DWIDTH 8 0
BBX 0 0 0 -4
BITMAP
ENDCHAR
STARTCHAR ordmasculine
ENCODING 188
SWIDTH 500 0
DWIDTH 8 0
BBX 0 0 0 -4
BITMAP
ENDCHAR
STARTCHAR Omega
ENCODING 189
SWIDTH 500 0
DWIDTH 8 0
BBX 0 0 0 -4
BITMAP
ENDCHAR
STARTCHAR ae
ENCODING 190
SWIDTH 500 0
DWIDTH 8 0
BBX 0 0 0 -4
BITMAP
ENDCHAR
STARTCHAR oslash
ENCODING 191
SWIDTH 500 0
DWIDTH 8 0
BBX 0 0 0 -4
BITMAP
ENDCHAR
STARTCHAR questiondown
ENCODING 192
SWIDTH 500 0
DWIDTH 8 0
BBX 0 0 0 -4
BITMAP
ENDCHAR
STARTCHAR exclamdown
ENCODING 193
SWIDTH 500 0
DWIDTH 8 0
BBX 0 0 0 -4
BITMAP
ENDCHAR
STARTCHAR logicalnot
ENCODING 194
SWIDTH 500 0
DWIDTH 8 0
BBX 0 0 0 -4
BITMAP
ENDCHAR
STARTCHAR radical
ENCODING 195
SWIDTH 500 0
DWIDTH 8 0
BBX 0 0 0 -4
BITMAP
ENDCHAR
STARTCHAR florin
ENCODING 196
SWIDTH 500 0
DWIDTH 8 0
BBX 0 0 0 -4
BITMAP
ENDCHAR
STARTCHAR approxequal
ENCODING 197
SWIDTH 500 0
DWIDTH 8 0
BBX 0 0 0 -4
BITMAP
ENDCHAR
STARTCHAR Delta
ENCODING 198
SWIDTH 500 0
DWIDTH 8 0
BBX 0 0 0 -4
BITMAP
ENDCHAR
STARTCHAR guillemotleft
ENCODING 199
SWIDTH 500 0
DWIDTH 8 0
BBX 0 0 0 -4
BITMAP
ENDCHAR
STARTCHAR guillemotright
ENCODING 200
SWIDTH 500 0
DWIDTH 8 0
BBX 0 0 0 -4
BITMAP
ENDCHAR
STARTCHAR ellipsis
ENCODING 201
SWIDTH 500 0
DWIDTH 8 0
BBX 0 0 0 -4
BITMAP
ENDCHAR
STARTCHAR nbspace
ENCODING 202
SWIDTH 500 0
DWIDTH 8 0
BBX 0 0 0 -4
BITMAP
ENDCHAR
STARTCHAR Agrave
ENCODING 203
SWIDTH 500 0
DWIDTH 8 0
BBX 0 0 0 -4
BITMAP
ENDCHAR
STARTCHAR Atilde
ENCODING 204
SWIDTH 500 0
DWIDTH 8 0
BBX 0 0 0 -4
BITMAP
ENDCHAR
STARTCHAR Otilde
ENCODING 205
SWIDTH 500 0
DWIDTH 8 0
BBX 0 0 0 -4
BITMAP
ENDCHAR
STARTCHAR OE
ENCODING 206
SWIDTH 500 0
DWIDTH 8 0
BBX 0 0 0 -4
BITMAP
ENDCHAR
STARTCHAR oe
ENCODING 207
SWIDTH 500 0
DWIDTH 8 0
BBX 0 0 0 -4
BITMAP
ENDCHAR
STARTCHAR endash
ENCODING 208
SWIDTH 500 0
DWIDTH 8 0
BBX 0 0 0 -4
BITMAP
ENDCHAR
STARTCHAR emdash
ENCODING 209
SWIDTH 500 0
DWIDTH 8 0
BBX 0 0 0 -4
BITMAP
ENDCHAR
STARTCHAR quotedblleft
ENCODING 210
SWIDTH 500 0
DWIDTH 8 0
BBX 0 0 0 -4
BITMAP
ENDCHAR
STARTCHAR quotedblright
ENCODING 211
SWIDTH 500 0
DWIDTH 8 0
BBX 0 0 0 -4
BITMAP
ENDCHAR
STARTCHAR quoteleft
ENCODING 212
SWIDTH 500 0
DWIDTH 8 0
BBX 0 0 0 -4
BITMAP
ENDCHAR
STARTCHAR quoteright
ENCODING 213
SWIDTH 500 0
DWIDTH 8 0
BBX 0 0 0 -4
BITMAP
ENDCHAR
STARTCHAR divide
ENCODING 214
SWIDTH 500 0
DWIDTH 8 0
BBX 0 0 0 -4
BITMAP
ENDCHAR
STARTCHAR lozenge
ENCODING 215
SWIDTH 500 0
DWIDTH 8 0
BBX 0 0 0 -4
BITMAP
ENDCHAR
STARTCHAR ydieresis
ENCODING 216
SWIDTH 500 0
DWIDTH 8 0
BBX 0 0 0 -4
BITMAP
ENDCHAR
STARTCHAR Ydieresis
ENCODING 217
SWIDTH 500 0
DWIDTH 8 0
BBX 0 0 0 -4
BITMAP
ENDCHAR
STARTCHAR fraction
ENCODING 218
SWIDTH 500 0
DWIDTH 8 0
BBX 0 0 0 -4
BITMAP
ENDCHAR
STARTCHAR currency
ENCODING 219
SWIDTH 500 0
DWIDTH 8 0
BBX 0 0 0 -4
BITMAP
ENDCHAR
STARTCHAR guilsinglleft
ENCODING 220
SWIDTH 500 0
DWIDTH 8 0
BBX 0 0 0 -4
BITMAP
ENDCHAR
STARTCHAR guilsinglright
ENCODING 221
SWIDTH 500 0
DWIDTH 8 0
BBX 0 0 0 -4
BITMAP
ENDCHAR
STARTCHAR fi
ENCODING 222
SWIDTH 500 0
DWIDTH 8 0
BBX 0 0 0 -4
BITMAP
ENDCHAR
STARTCHAR fl
ENCODING 223
SWIDTH 500 0
DWIDTH 8 0
BBX 0 0 0 -4
BITMAP
ENDCHAR
STARTCHAR daggerdbl
ENCODING 224
SWIDTH 500 0
DWIDTH 8 0
BBX 0 0 0 -4
BITMAP
ENDCHAR
STARTCHAR periodcentered
ENCODING 225
SWIDTH 500 0
DWIDTH 8 0
BBX 0 0 0 -4
BITMAP
ENDCHAR
STARTCHAR quotesinglbase
ENCODING 226
SWIDTH 500 0
DWIDTH 8 0
BBX 0 0 0 -4
BITMAP
ENDCHAR
STARTCHAR quotedblbase
ENCODING 227
SWIDTH 500 0
DWIDTH 8 0
BBX 0 0 0 -4
BITMAP
ENDCHAR
STARTCHAR perthousand
ENCODING 228
SWIDTH 500 0
DWIDTH 8 0
BBX 0 0 0 -4
BITMAP
ENDCHAR
STARTCHAR Acircumflex
ENCODING 229
SWIDTH 500 0
DWIDTH 8 0
BBX 0 0 0 -4
BITMAP
ENDCHAR
STARTCHAR Ecircumflex
ENCODING 230
SWIDTH 500 0
DWIDTH 8 0
BBX 0 0 0 -4
BITMAP
ENDCHAR
STARTCHAR Aacute
ENCODING 231
SWIDTH 500 0
DWIDTH 8 0
BBX 0 0 0 -4
BITMAP
ENDCHAR
STARTCHAR Edieresis
ENCODING 232
SWIDTH 500 0
DWIDTH 8 0
BBX 0 0 0 -4
BITMAP
ENDCHAR
STARTCHAR Egrave
ENCODING 233
SWIDTH 500 0
DWIDTH 8 0
BBX 0 0 0 -4
BITMAP
ENDCHAR
STARTCHAR Iacute
ENCODING 234
SWIDTH 500 0
DWIDTH 8 0
BBX 0 0 0 -4
BITMAP
ENDCHAR
STARTCHAR Icircumflex
ENCODING 235
SWIDTH 500 0
DWIDTH 8 0
BBX 0 0 0 -4
BITMAP
ENDCHAR
STARTCHAR Idieresis
ENCODING 236
SWIDTH 500 0
DWIDTH 8 0
BBX 0 0 0 -4
BITMAP
ENDCHAR
STARTCHAR Igrave
ENCODING 237
SWIDTH 500 0
DWIDTH 8 0
BBX 0 0 0 -4
BITMAP
ENDCHAR
STARTCHAR Oacute
ENCODING 238
SWIDTH 500 0
DWIDTH 8 0
BBX 0 0 0 -4
BITMAP
ENDCHAR
STARTCHAR Ocircumflex
ENCODING 239
SWIDTH 500 0
DWIDTH 8 0
BBX 0 0 0 -4
BITMAP
ENDCHAR
STARTCHAR apple
ENCODING 240
SWIDTH 500 0
DWIDTH 8 0
BBX 0 0 0 -4
BITMAP
ENDCHAR
STARTCHAR Ograve
ENCODING 241
SWIDTH 500 0
DWIDTH 8 0
BBX 0 0 0 -4
BITMAP
ENDCHAR
STARTCHAR Uacute
ENCODING 242
SWIDTH 500 0
DWIDTH 8 0
BBX 0 0 0 -4
BITMAP
ENDCHAR
STARTCHAR Ucircumflex
ENCODING 243
SWIDTH 500 0
DWIDTH 8 0
BBX 0 0 0 -4
BITMAP
ENDCHAR
STARTCHAR Ugrave
ENCODING 244
SWIDTH 500 0
DWIDTH 8 0
BBX 0 0 0 -4
BITMAP
ENDCHAR
STARTCHAR dotlessi
ENCODING 245
SWIDTH 500 0
DWIDTH 8 0
BBX 0 0 0 -4
BITMAP
ENDCHAR
STARTCHAR circumflex
ENCODING 246
SWIDTH 500 0
DWIDTH 8 0
BBX 0 0 0 -4
BITMAP
ENDCHAR
STARTCHAR tilde
ENCODING 247
SWIDTH 500 0
DWIDTH 8 0
BBX 0 0 0 -4
BITMAP
ENDCHAR
STARTCHAR macron
ENCODING 248
SWIDTH 500 0
DWIDTH 8 0
BBX 0 0 0 -4
BITMAP
ENDCHAR
STARTCHAR breve
ENCODING 249
SWIDTH 500 0
DWIDTH 8 0
BBX 0 0 0 -4
BITMAP
ENDCHAR
STARTCHAR dotaccent
ENCODING 250
SWIDTH 500 0
DWIDTH 8 0
BBX 0 0 0 -4
BITMAP
ENDCHAR
STARTCHAR ring
ENCODING 251
SWIDTH 500 0
DWIDTH 8 0
BBX 0 0 0 -4
BITMAP
ENDCHAR
STARTCHAR cedilla
ENCODING 252
SWIDTH 500 0
DWIDTH 8 0
BBX 0 0 0 -4
BITMAP
ENDCHAR
STARTCHAR hungarumlaut
ENCODING 253
SWIDTH 500 0
DWIDTH 8 0
BBX 0 0 0 -4
BITMAP
ENDCHAR
STARTCHAR ogonek
ENCODING 254
SWIDTH 500 0
DWIDTH 8 0
BBX 0 0 0 -4
BITMAP
ENDCHAR
STARTCHAR caron
ENCODING 255
SWIDTH 1000 0
DWIDTH 16 0
BBX 12 2 2 4
BITMAP
C630
C630
ENDCHAR
ENDFONT
